<svg xmlns="http://www.w3.org/2000/svg" viewBox="0 0 704 50.16"><defs><style>.a{fill:#3a3a3a;}.b{fill:#3c3c3c;}.c{fill:#393939;}.d{fill:#3b3b3b;}.e{fill:#487384;}.f{fill:#414141;}.g{fill:#3f3f3f;}.h{fill:#383838;}.i{fill:#497485;}.j{fill:#3d3d3d;}.k{fill:#4c7687;}.l{fill:#436f81;}.m{fill:#4a7586;}.n{fill:#3e3e3e;}.o{fill:none;}</style></defs><title>Creat.-Learn.-Play</title><path class="a" d="M389.15,371.53c5.37-1.27,9,.14,12.21,4.6,5.89,8.19,12.45,15.9,19.69,25V371.48h10.27v48.31c-5.11,1.34-9,.14-12.4-4.42-6.12-8.29-12.72-16.23-19.75-25.12v29.31c-3.53,1.17-6.62.55-10,.61Z" transform="translate(57.24 -370.6)"/><path class="b" d="M371.25,399.64c5.2,6.34,8.61,13.27,13.28,20.51-5.15,0-9.36.65-13-.44-6-5.36-5.86-15.33-15.56-18.25V420H344.71V371.25c8.07,0,16.3-.94,24.44,1,5.37,1.3,9.45,4.37,10.47,10.1,1.11,6.15-.4,11.56-5.73,15.43C373.1,398.39,372.28,398.93,371.25,399.64ZM356,394.09c4.64,0,9,.72,11.59-3.71,1.51-2.53,1.59-5.17-.16-7.47-3-3.89-7.2-3-11.43-3Z" transform="translate(57.24 -370.6)"/><path class="c" d="M16,419.52q-5-8.55-9.46-16.31a6.23,6.23,0,0,0-5.48-.45v16.95a32.65,32.65,0,0,1-11.23.19V371.28c8.4,0,16.76-1,25,1.14,5.18,1.37,8.91,4.32,10,9.89,1.19,6.05-.28,11.18-5.18,15.13-.9.72-1.88,1.33-3.07,2.15,5,6.15,8.47,13.17,13.09,20.31C24.82,420.34,20.63,420.6,16,419.52ZM1.15,394c4.6.22,8.94,1,11.74-3.51,1.65-2.65,1.73-5.58-.25-7.85-3.07-3.52-7.24-3-11.49-2.38Z" transform="translate(57.24 -370.6)"/><path class="d" d="M309.78,371.27H321.7c6.2,16,12.42,32.08,18.86,48.71-4.29.29-8,.8-11.51-.58-2.58-2.82-2.4-6.69-4.49-9.88H306.91c-2,3-1.91,6.85-4.36,9.74-3.5,1.57-7.24,1-11.6.69ZM322.12,401c-2.11-6.2-4-11.81-6.4-18.76-2.4,7.17-4.26,12.76-6.26,18.76Z" transform="translate(57.24 -370.6)"/><path class="a" d="M86.72,371.31H98.66l18.82,48.59c-4.15.53-7.7.66-11.17-.32-2.94-2.75-2.55-6.93-4.88-10.08H83.84c-2,3.13-1.87,7-4.36,9.73-3.43,1.76-7.12.72-11.7,1.13C74.24,403.62,80.46,387.51,86.72,371.31ZM99.18,401c-2.21-6.35-4.17-12-6.12-17.54-2.43,6-5.37,11.38-6.28,17.54Z" transform="translate(57.24 -370.6)"/><path class="e" d="M572.19,371.27l18.72,48.38c-3.94,1.23-7.57.68-11,0-3-2.85-2.78-6.72-4.79-10H557.5c-2.27,2.59-1.94,6.54-4.37,9.46-3.38,1.92-7.16,1.16-11.72.93,6.33-16.4,12.51-32.4,18.71-48.44C564.25,370.69,568.16,371.14,572.19,371.27Zm-5.9,11L559.85,401c4.39.31,8.2.65,12.61-.29Z" transform="translate(57.24 -370.6)"/><path class="f" d="M34.16,419.67V371.52H65.33c.68,2.72.39,5.34.18,8.51H46.25c-.91,3.77-.42,7.05-.47,10.9H60.49c.93,3.16.5,5.79.44,8.88h-15v11.32H65.51v8.54Z" transform="translate(57.24 -370.6)"/><path class="g" d="M288.7,371.52v8.69H269.1V390.9h14.32c1.07,3.12.55,5.86.52,8.93H269.1V411h19.48v9H257.17V371.52Z" transform="translate(57.24 -370.6)"/><path class="g" d="M187.59,371.47V380H168.34c-1.12,3.93-.42,7.32-.6,11.18h14.91v8.66H168.22c-.92,3.76-.38,7.2-.46,11.21h19.56a27,27,0,0,1,.09,9H156.14V371.47Z" transform="translate(57.24 -370.6)"/><path class="e" d="M468.32,371.19c8.34,0,16.65-1,24.81.92,8.51,2,12.5,8.16,11.79,17.13-.64,8-6.07,13.44-14.7,14.35-3.26.34-6.59.05-10.35.05v15.95c-4,1.32-7.61.47-11.55.68Zm11.53,24.18c4.91-.45,9.78,1,12.62-3.88a7.33,7.33,0,0,0-.69-8.88c-3.3-3.8-7.65-2.79-11.93-2.5Z" transform="translate(57.24 -370.6)"/><path class="h" d="M-14.89,377.37c-1.6,2.44-2.84,4.79-5.71,6.56-7.63-4-15.73-6.68-22.18,2.33-3.78,5.26-3.47,14.77.52,19.81,6.48,8.2,14,5.11,21,1.18a19.31,19.31,0,0,1,5.57,5.44c-3.78,8.49-22.53,11.39-32.68,3.28-10.43-8.35-12-26.72-3-36.91C-42.18,368.59-24.71,367.63-14.89,377.37Z" transform="translate(57.24 -370.6)"/><path class="i" d="M612.71,420c-4.17.36-7.74.58-11.2-.09-.23-.55-.5-.87-.45-1.14,2.56-14.32-4.29-25.64-11.61-36.85-2.07-3.18-3.84-6.55-5.79-9.9,8.91-2.72,12.19-1.34,16,6.48l6.82,13.92c3.31-4.22,4.86-8.92,7-13.25,4.4-8.77,5.48-9.38,16.48-7.44-4.15,7.13-7.89,14.32-12.36,21-3.89,5.81-5.71,11.81-5,18.72C612.93,414.11,612.71,416.78,612.71,420Z" transform="translate(57.24 -370.6)"/><path class="j" d="M125.93,380.57h-13v-9.06h38.43v8.54c-4.14,1.31-8.67-.12-13.38.86v38.91a37.47,37.47,0,0,1-12,0Z" transform="translate(57.24 -370.6)"/><path class="g" d="M222.63,371.32h11.09v39.29h17.71c1.14,3.26.35,6.18.65,9.37H222.63Z" transform="translate(57.24 -370.6)"/><path class="k" d="M510.82,420V371.61c3.7-1,7.27-.58,11.42-.24v39.21h17.24c1.78,3.24.59,6.15,1,9.38Z" transform="translate(57.24 -370.6)"/><path class="l" d="M635.87,370.93h10c-.38,10.31.88,20.7-1.22,31.16-2.38,1.05-4.79.67-7.39.26C634.85,392,636.13,381.55,635.87,370.93Z" transform="translate(57.24 -370.6)"/><path class="m" d="M634.78,414.42c.42-3.67,2.67-5.68,6.33-5.49,3.37.17,5.67,2.19,5.64,5.77,0,3.79-2.35,5.9-6,5.87S635,418.34,634.78,414.42Z" transform="translate(57.24 -370.6)"/><path class="b" d="M449.21,415.21c-.35,3.52-2.57,5.48-6.19,5.39-3.46-.07-5.57-2.22-5.64-5.67-.06-3.78,2.4-5.95,5.92-5.93S449.14,411.1,449.21,415.21Z" transform="translate(57.24 -370.6)"/><path class="n" d="M197.8,420.72c-3.44-.42-5.94-2-6-5.84s2.45-5.82,6-5.85a5.43,5.43,0,0,1,5.86,5.51C203.8,418.29,201.48,420.19,197.8,420.72Z" transform="translate(57.24 -370.6)"/><path class="o" d="M322.12,401H309.46c2-6,3.86-11.59,6.26-18.76C318.09,389.2,320,394.81,322.12,401Z" transform="translate(57.24 -370.6)"/><path class="o" d="M99.18,401H86.78c.91-6.16,3.85-11.52,6.28-17.54C95,389.09,97,394.69,99.18,401Z" transform="translate(57.24 -370.6)"/><path class="o" d="M566.29,382.23l6.17,18.52c-4.41.94-8.22.6-12.61.29Z" transform="translate(57.24 -370.6)"/></svg>