<?xml version="1.0" encoding="utf-8"?>
<!-- Generator: Adobe Illustrator 24.0.1, SVG Export Plug-In . SVG Version: 6.00 Build 0)  -->
<svg version="1.1" id="Layer_1" xmlns="http://www.w3.org/2000/svg" x="0px" y="0px"
     viewBox="0 0 276 87" style="enable-background:new 0 0 276 87;" xml:space="preserve">
<style type="text/css">
	.st0{fill:#FFFFFF;}
</style>
    <title>Create</title>
    <path class="st0"
          d="M268.8-63c-92,0-183.9,0-276,0c0-28.9,0-57.9,0-87c91.9,0,184,0,276,0C268.8-121.1,268.8-92.1,268.8-63z"/>
    <path d="M48-130c7.5,0,14.7-0.5,21.7,0.1c5.9,0.5,10.9,3.3,12.7,9.6c1.9,6.8-0.5,12.6-6.6,16.9c-0.5,0.4-1,0.7-1.6,1.2
	c5,6.1,8.4,12.9,12.9,19.9c-4.6,0.6-8.5,0.6-13-0.1c-3.1-5.3-6.4-10.9-9.6-16.3c-1.8-1.1-3.5-1.7-5.9-0.3c0,5.3,0,10.9,0,16.6
	c-3.8,0.6-7.1,0.6-10.7,0.1C48-98,48-113.7,48-130z"/>
    <path d="M144.6-130.1c4.2-0.4,7.9-0.5,11.9,0.1c6.1,15.7,12.2,31.5,18.4,47.6c-3.9,1.1-7.3,0.6-10.5,0.2c-2.9-2.8-2.7-7-5-10.3
	c-5.8,0-11.7,0-17.6,0c-2.5,2.9-1.9,7.1-4.8,10c-3.2,1.1-6.7,0.8-10.9,0.4C132.4-98.3,138.4-114.1,144.6-130.1z"/>
    <path d="M103.8-121.4c-0.9,3.6-0.4,7-0.3,11c5.1,0,9.9,0,14.5,0c1,2.9,0.6,5.2,0.5,7.7c-4.7,1.3-9.5-0.1-14.5,0.9
	c-1.3,3.5-0.3,7.1-0.6,11.3c6.7,0,12.9,0,18.9,0c1.7,2.9,0.7,5.4,1.1,8.2c-10.5,0-20.5,0-31,0c0-15.7,0-31.4,0-47.7
	c10.1,0,20.3,0,30.5,0c0.8,2.5,0.6,4.8,0.2,7.4C116.8-120.9,110.2-122.8,103.8-121.4z"/>
    <path d="M225.9-122c-0.6,4.2-0.6,7.5-0.1,11c4.7,1.5,9.6-0.1,14.5,1.1c0.7,2.4,0.4,4.8,0.1,7.9c-4.9,0-9.6,0-14.5,0
	c-0.8,4-0.6,7.4-0.1,11.7c6.4,0,12.8,0,18.9,0c1,3,0.7,5.3,0.4,8.1c-10.2,0-20.4,0-30.9,0c0-15.7,0-31.5,0-47.8
	c10.2-0.6,20.4-0.3,30.5-0.1c1,2.8,0.8,5.2,0.2,8.2C238.6-122,232.4-122,225.9-122z"/>
    <path d="M36.5-94.3c2.6,1.6,4,3.3,5.3,5.3c-4.1,6.6-13.4,9.5-23.1,7.3C8.4-84.1,1.9-92.1,0.9-103.2c-1-11.3,4.4-21.3,13.9-25.5
	c9.8-4.4,21.4-2.6,27.9,4.3c-1.3,2.4-2.6,4.9-5.3,6.2c-12.7-4.5-17.7-4-22.1,2.1c-3.9,5.5-4,15.4,0.3,20.7
	C21.9-87.6,29.2-89.9,36.5-94.3z"/>
    <path d="M195.8-82.2c-4.2,0.7-7.6,0.5-11.7,0.2c0-6.8,0-13.3,0-19.7c0-6.3,0-12.6,0-19.5c-4.5,0-8.5,0-12.7,0
	c-0.9-3.1-0.6-5.7-0.3-8.7c12.7,0,25.2,0,37.9,0c0.8,2.7,0.7,5.2,0,8.4c-4.3,0-8.5,0-13.2,0C195.8-108.1,195.8-95.4,195.8-82.2z"/>
    <path d="M249.9-87.1c0.4-3.6,2.6-5.4,6-5.3c3.5,0.1,5.6,2.3,5.5,5.8s-2.5,5.5-5.9,5.3C252-81.5,250-83.5,249.9-87.1z"/>
    <path class="st0" d="M58.8-107.7c0-4.9,0-9.2,0-13.7c4.3-1.1,8.4-1.3,11.6,2c2.2,2.4,2.1,5.5,0.3,8.3
	C67.8-106.7,63.6-107.2,58.8-107.7z"/>
    <path class="st0"
          d="M157.1-100.8c-4.6,0.7-8.3,0.6-12.6,0.1c1-6.3,3.8-11.8,6.6-17.7C153.1-112.7,154.9-107.1,157.1-100.8z"/>
</svg>
